<mxfile host="app.diagrams.net" agent="Mozilla/5.0 (Macintosh; Intel Mac OS X 10_15_7) AppleWebKit/537.36 (KHTML, like Gecko) Chrome/131.0.0.0 Safari/537.36" version="25.0.3">
  <diagram name="Page-1" id="GOFP5V8usBQ-maRfUv-Q">
    <mxGraphModel dx="954" dy="639" grid="1" gridSize="10" guides="1" tooltips="1" connect="1" arrows="1" fold="1" page="1" pageScale="1" pageWidth="850" pageHeight="1100" math="0" shadow="0">
      <root>
        <mxCell id="0" />
        <mxCell id="1" parent="0" />
        <mxCell id="wHghQkYVK7Z7FGzc5HRr-1" value="Large Scale Simulation" style="rounded=0;whiteSpace=wrap;html=1;fontSize=14;fontStyle=1;flipV=1;flipH=0;labelBackgroundColor=none;" vertex="1" parent="1">
          <mxGeometry x="40" y="610" width="120" height="60" as="geometry" />
        </mxCell>
        <mxCell id="wHghQkYVK7Z7FGzc5HRr-2" value="" style="endArrow=classic;html=1;rounded=0;fontSize=13;labelBackgroundColor=none;fontColor=default;" edge="1" parent="1">
          <mxGeometry width="50" height="50" relative="1" as="geometry">
            <mxPoint x="160" y="639.5" as="sourcePoint" />
            <mxPoint x="230" y="640" as="targetPoint" />
          </mxGeometry>
        </mxCell>
        <mxCell id="wHghQkYVK7Z7FGzc5HRr-3" value="" style="shape=table;startSize=0;container=1;collapsible=0;childLayout=tableLayout;flipV=1;flipH=0;labelBackgroundColor=none;" vertex="1" parent="1">
          <mxGeometry x="260" y="580" width="240" height="40" as="geometry" />
        </mxCell>
        <mxCell id="wHghQkYVK7Z7FGzc5HRr-4" value="" style="shape=tableRow;horizontal=0;startSize=0;swimlaneHead=0;swimlaneBody=0;top=0;left=0;bottom=0;right=0;collapsible=0;dropTarget=0;fillColor=none;points=[[0,0.5],[1,0.5]];portConstraint=eastwest;labelBackgroundColor=none;" vertex="1" parent="wHghQkYVK7Z7FGzc5HRr-3">
          <mxGeometry width="240" height="40" as="geometry" />
        </mxCell>
        <mxCell id="wHghQkYVK7Z7FGzc5HRr-5" value="Task 4" style="shape=partialRectangle;html=1;whiteSpace=wrap;connectable=0;overflow=hidden;fillColor=none;top=0;left=0;bottom=0;right=0;pointerEvents=1;labelBackgroundColor=none;fontStyle=1" vertex="1" parent="wHghQkYVK7Z7FGzc5HRr-4">
          <mxGeometry width="60" height="40" as="geometry">
            <mxRectangle width="60" height="40" as="alternateBounds" />
          </mxGeometry>
        </mxCell>
        <mxCell id="wHghQkYVK7Z7FGzc5HRr-6" value="Task 3" style="shape=partialRectangle;html=1;whiteSpace=wrap;connectable=0;overflow=hidden;fillColor=none;top=0;left=0;bottom=0;right=0;pointerEvents=1;labelBackgroundColor=none;fontStyle=1" vertex="1" parent="wHghQkYVK7Z7FGzc5HRr-4">
          <mxGeometry x="60" width="60" height="40" as="geometry">
            <mxRectangle width="60" height="40" as="alternateBounds" />
          </mxGeometry>
        </mxCell>
        <mxCell id="wHghQkYVK7Z7FGzc5HRr-7" value="Task 2" style="shape=partialRectangle;html=1;whiteSpace=wrap;connectable=0;overflow=hidden;fillColor=none;top=0;left=0;bottom=0;right=0;pointerEvents=1;labelBackgroundColor=none;fontStyle=1" vertex="1" parent="wHghQkYVK7Z7FGzc5HRr-4">
          <mxGeometry x="120" width="60" height="40" as="geometry">
            <mxRectangle width="60" height="40" as="alternateBounds" />
          </mxGeometry>
        </mxCell>
        <mxCell id="wHghQkYVK7Z7FGzc5HRr-8" value="Task 1" style="shape=partialRectangle;html=1;whiteSpace=wrap;connectable=0;overflow=hidden;fillColor=none;top=0;left=0;bottom=0;right=0;pointerEvents=1;labelBackgroundColor=none;fontStyle=1" vertex="1" parent="wHghQkYVK7Z7FGzc5HRr-4">
          <mxGeometry x="180" width="60" height="40" as="geometry">
            <mxRectangle width="60" height="40" as="alternateBounds" />
          </mxGeometry>
        </mxCell>
        <mxCell id="wHghQkYVK7Z7FGzc5HRr-9" value="" style="shape=table;startSize=0;container=1;collapsible=0;childLayout=tableLayout;flipV=1;flipH=0;labelBackgroundColor=none;fontStyle=1" vertex="1" parent="1">
          <mxGeometry x="260" y="640" width="240" height="40" as="geometry" />
        </mxCell>
        <mxCell id="wHghQkYVK7Z7FGzc5HRr-10" value="" style="shape=tableRow;horizontal=0;startSize=0;swimlaneHead=0;swimlaneBody=0;top=0;left=0;bottom=0;right=0;collapsible=0;dropTarget=0;fillColor=none;points=[[0,0.5],[1,0.5]];portConstraint=eastwest;labelBackgroundColor=none;" vertex="1" parent="wHghQkYVK7Z7FGzc5HRr-9">
          <mxGeometry width="240" height="40" as="geometry" />
        </mxCell>
        <mxCell id="wHghQkYVK7Z7FGzc5HRr-11" value="Task 8" style="shape=partialRectangle;html=1;whiteSpace=wrap;connectable=0;overflow=hidden;fillColor=none;top=0;left=0;bottom=0;right=0;pointerEvents=1;labelBackgroundColor=none;fontStyle=1" vertex="1" parent="wHghQkYVK7Z7FGzc5HRr-10">
          <mxGeometry width="60" height="40" as="geometry">
            <mxRectangle width="60" height="40" as="alternateBounds" />
          </mxGeometry>
        </mxCell>
        <mxCell id="wHghQkYVK7Z7FGzc5HRr-12" value="Task 7" style="shape=partialRectangle;html=1;whiteSpace=wrap;connectable=0;overflow=hidden;fillColor=none;top=0;left=0;bottom=0;right=0;pointerEvents=1;labelBackgroundColor=none;fontStyle=1" vertex="1" parent="wHghQkYVK7Z7FGzc5HRr-10">
          <mxGeometry x="60" width="60" height="40" as="geometry">
            <mxRectangle width="60" height="40" as="alternateBounds" />
          </mxGeometry>
        </mxCell>
        <mxCell id="wHghQkYVK7Z7FGzc5HRr-13" value="Task 6" style="shape=partialRectangle;html=1;whiteSpace=wrap;connectable=0;overflow=hidden;fillColor=none;top=0;left=0;bottom=0;right=0;pointerEvents=1;labelBackgroundColor=none;fontStyle=1" vertex="1" parent="wHghQkYVK7Z7FGzc5HRr-10">
          <mxGeometry x="120" width="60" height="40" as="geometry">
            <mxRectangle width="60" height="40" as="alternateBounds" />
          </mxGeometry>
        </mxCell>
        <mxCell id="wHghQkYVK7Z7FGzc5HRr-14" value="Task 5" style="shape=partialRectangle;html=1;whiteSpace=wrap;connectable=0;overflow=hidden;fillColor=none;top=0;left=0;bottom=0;right=0;pointerEvents=1;labelBackgroundColor=none;fontStyle=1" vertex="1" parent="wHghQkYVK7Z7FGzc5HRr-10">
          <mxGeometry x="180" width="60" height="40" as="geometry">
            <mxRectangle width="60" height="40" as="alternateBounds" />
          </mxGeometry>
        </mxCell>
        <mxCell id="wHghQkYVK7Z7FGzc5HRr-15" value="" style="shape=table;startSize=0;container=1;collapsible=0;childLayout=tableLayout;flipV=1;flipH=0;labelBackgroundColor=none;" vertex="1" parent="1">
          <mxGeometry x="260" y="700" width="240" height="40" as="geometry" />
        </mxCell>
        <mxCell id="wHghQkYVK7Z7FGzc5HRr-16" value="" style="shape=tableRow;horizontal=0;startSize=0;swimlaneHead=0;swimlaneBody=0;top=0;left=0;bottom=0;right=0;collapsible=0;dropTarget=0;fillColor=none;points=[[0,0.5],[1,0.5]];portConstraint=eastwest;labelBackgroundColor=none;" vertex="1" parent="wHghQkYVK7Z7FGzc5HRr-15">
          <mxGeometry width="240" height="40" as="geometry" />
        </mxCell>
        <mxCell id="wHghQkYVK7Z7FGzc5HRr-17" value="Task 12" style="shape=partialRectangle;html=1;whiteSpace=wrap;connectable=0;overflow=hidden;fillColor=none;top=0;left=0;bottom=0;right=0;pointerEvents=1;labelBackgroundColor=none;fontStyle=1" vertex="1" parent="wHghQkYVK7Z7FGzc5HRr-16">
          <mxGeometry width="60" height="40" as="geometry">
            <mxRectangle width="60" height="40" as="alternateBounds" />
          </mxGeometry>
        </mxCell>
        <mxCell id="wHghQkYVK7Z7FGzc5HRr-18" value="Task 11" style="shape=partialRectangle;html=1;whiteSpace=wrap;connectable=0;overflow=hidden;fillColor=none;top=0;left=0;bottom=0;right=0;pointerEvents=1;labelBackgroundColor=none;fontStyle=1" vertex="1" parent="wHghQkYVK7Z7FGzc5HRr-16">
          <mxGeometry x="60" width="60" height="40" as="geometry">
            <mxRectangle width="60" height="40" as="alternateBounds" />
          </mxGeometry>
        </mxCell>
        <mxCell id="wHghQkYVK7Z7FGzc5HRr-19" value="Task 10" style="shape=partialRectangle;html=1;whiteSpace=wrap;connectable=0;overflow=hidden;fillColor=none;top=0;left=0;bottom=0;right=0;pointerEvents=1;labelBackgroundColor=none;fontStyle=1" vertex="1" parent="wHghQkYVK7Z7FGzc5HRr-16">
          <mxGeometry x="120" width="60" height="40" as="geometry">
            <mxRectangle width="60" height="40" as="alternateBounds" />
          </mxGeometry>
        </mxCell>
        <mxCell id="wHghQkYVK7Z7FGzc5HRr-20" value="Task 9" style="shape=partialRectangle;html=1;whiteSpace=wrap;connectable=0;overflow=hidden;fillColor=none;top=0;left=0;bottom=0;right=0;pointerEvents=1;labelBackgroundColor=none;fontStyle=1" vertex="1" parent="wHghQkYVK7Z7FGzc5HRr-16">
          <mxGeometry x="180" width="60" height="40" as="geometry">
            <mxRectangle width="60" height="40" as="alternateBounds" />
          </mxGeometry>
        </mxCell>
        <mxCell id="wHghQkYVK7Z7FGzc5HRr-21" value="" style="shape=table;startSize=0;container=1;collapsible=0;childLayout=tableLayout;flipV=1;flipH=0;labelBackgroundColor=none;" vertex="1" parent="1">
          <mxGeometry x="260" y="770" width="240" height="40" as="geometry" />
        </mxCell>
        <mxCell id="wHghQkYVK7Z7FGzc5HRr-22" value="" style="shape=tableRow;horizontal=0;startSize=0;swimlaneHead=0;swimlaneBody=0;top=0;left=0;bottom=0;right=0;collapsible=0;dropTarget=0;fillColor=none;points=[[0,0.5],[1,0.5]];portConstraint=eastwest;labelBackgroundColor=none;" vertex="1" parent="wHghQkYVK7Z7FGzc5HRr-21">
          <mxGeometry width="240" height="40" as="geometry" />
        </mxCell>
        <mxCell id="wHghQkYVK7Z7FGzc5HRr-23" value="Task 16" style="shape=partialRectangle;html=1;whiteSpace=wrap;connectable=0;overflow=hidden;fillColor=none;top=0;left=0;bottom=0;right=0;pointerEvents=1;labelBackgroundColor=none;fontStyle=1" vertex="1" parent="wHghQkYVK7Z7FGzc5HRr-22">
          <mxGeometry width="60" height="40" as="geometry">
            <mxRectangle width="60" height="40" as="alternateBounds" />
          </mxGeometry>
        </mxCell>
        <mxCell id="wHghQkYVK7Z7FGzc5HRr-24" value="Task 15" style="shape=partialRectangle;html=1;whiteSpace=wrap;connectable=0;overflow=hidden;fillColor=none;top=0;left=0;bottom=0;right=0;pointerEvents=1;labelBackgroundColor=none;fontStyle=1" vertex="1" parent="wHghQkYVK7Z7FGzc5HRr-22">
          <mxGeometry x="60" width="60" height="40" as="geometry">
            <mxRectangle width="60" height="40" as="alternateBounds" />
          </mxGeometry>
        </mxCell>
        <mxCell id="wHghQkYVK7Z7FGzc5HRr-25" value="Task 14" style="shape=partialRectangle;html=1;whiteSpace=wrap;connectable=0;overflow=hidden;fillColor=none;top=0;left=0;bottom=0;right=0;pointerEvents=1;labelBackgroundColor=none;fontStyle=1" vertex="1" parent="wHghQkYVK7Z7FGzc5HRr-22">
          <mxGeometry x="120" width="60" height="40" as="geometry">
            <mxRectangle width="60" height="40" as="alternateBounds" />
          </mxGeometry>
        </mxCell>
        <mxCell id="wHghQkYVK7Z7FGzc5HRr-26" value="Task 13" style="shape=partialRectangle;html=1;whiteSpace=wrap;connectable=0;overflow=hidden;fillColor=none;top=0;left=0;bottom=0;right=0;pointerEvents=1;labelBackgroundColor=none;fontStyle=1" vertex="1" parent="wHghQkYVK7Z7FGzc5HRr-22">
          <mxGeometry x="180" width="60" height="40" as="geometry">
            <mxRectangle width="60" height="40" as="alternateBounds" />
          </mxGeometry>
        </mxCell>
        <mxCell id="wHghQkYVK7Z7FGzc5HRr-27" value="" style="shape=table;startSize=0;container=1;collapsible=0;childLayout=tableLayout;fontStyle=1;labelBackgroundColor=none;" vertex="1" parent="1">
          <mxGeometry x="591" y="573" width="160" height="239" as="geometry" />
        </mxCell>
        <mxCell id="wHghQkYVK7Z7FGzc5HRr-28" value="" style="shape=tableRow;horizontal=0;startSize=0;swimlaneHead=0;swimlaneBody=0;top=0;left=0;bottom=0;right=0;collapsible=0;dropTarget=0;fillColor=none;points=[[0,0.5],[1,0.5]];portConstraint=eastwest;labelBackgroundColor=none;" vertex="1" parent="wHghQkYVK7Z7FGzc5HRr-27">
          <mxGeometry width="160" height="60" as="geometry" />
        </mxCell>
        <mxCell id="wHghQkYVK7Z7FGzc5HRr-29" value="CPU Core 1" style="shape=partialRectangle;html=1;whiteSpace=wrap;connectable=0;overflow=hidden;fillColor=none;top=0;left=0;bottom=0;right=0;pointerEvents=1;fontStyle=1;fontSize=14;labelBackgroundColor=none;" vertex="1" parent="wHghQkYVK7Z7FGzc5HRr-28">
          <mxGeometry width="89" height="60" as="geometry">
            <mxRectangle width="89" height="60" as="alternateBounds" />
          </mxGeometry>
        </mxCell>
        <mxCell id="wHghQkYVK7Z7FGzc5HRr-30" value="NODE" style="shape=partialRectangle;html=1;whiteSpace=wrap;connectable=0;overflow=hidden;fillColor=none;top=0;left=0;bottom=0;right=0;pointerEvents=1;rowspan=4;colspan=1;fontStyle=1;fontSize=14;labelBackgroundColor=none;" vertex="1" parent="wHghQkYVK7Z7FGzc5HRr-28">
          <mxGeometry x="89" width="71" height="239" as="geometry">
            <mxRectangle width="71" height="60" as="alternateBounds" />
          </mxGeometry>
        </mxCell>
        <mxCell id="wHghQkYVK7Z7FGzc5HRr-31" value="" style="shape=tableRow;horizontal=0;startSize=0;swimlaneHead=0;swimlaneBody=0;top=0;left=0;bottom=0;right=0;collapsible=0;dropTarget=0;fillColor=none;points=[[0,0.5],[1,0.5]];portConstraint=eastwest;labelBackgroundColor=none;" vertex="1" parent="wHghQkYVK7Z7FGzc5HRr-27">
          <mxGeometry y="60" width="160" height="59" as="geometry" />
        </mxCell>
        <mxCell id="wHghQkYVK7Z7FGzc5HRr-32" value="CPU Core 2" style="shape=partialRectangle;html=1;whiteSpace=wrap;connectable=0;overflow=hidden;fillColor=none;top=0;left=0;bottom=0;right=0;pointerEvents=1;fontStyle=1;fontSize=14;labelBackgroundColor=none;" vertex="1" parent="wHghQkYVK7Z7FGzc5HRr-31">
          <mxGeometry width="89" height="59" as="geometry">
            <mxRectangle width="89" height="59" as="alternateBounds" />
          </mxGeometry>
        </mxCell>
        <mxCell id="wHghQkYVK7Z7FGzc5HRr-33" value="" style="shape=partialRectangle;html=1;whiteSpace=wrap;connectable=0;overflow=hidden;fillColor=none;top=0;left=0;bottom=0;right=0;pointerEvents=1;labelBackgroundColor=none;" visible="0" vertex="1" parent="wHghQkYVK7Z7FGzc5HRr-31">
          <mxGeometry x="89" width="71" height="59" as="geometry">
            <mxRectangle width="71" height="59" as="alternateBounds" />
          </mxGeometry>
        </mxCell>
        <mxCell id="wHghQkYVK7Z7FGzc5HRr-34" value="" style="shape=singleArrow;whiteSpace=wrap;html=1;arrowWidth=0.4;arrowSize=0.4;startSize=0;labelBackgroundColor=none;" vertex="1" parent="wHghQkYVK7Z7FGzc5HRr-31">
          <mxGeometry x="160" width="NaN" height="59" as="geometry">
            <mxRectangle width="NaN" height="59" as="alternateBounds" />
          </mxGeometry>
        </mxCell>
        <mxCell id="wHghQkYVK7Z7FGzc5HRr-35" value="" style="shape=tableRow;horizontal=0;startSize=0;swimlaneHead=0;swimlaneBody=0;top=0;left=0;bottom=0;right=0;collapsible=0;dropTarget=0;fillColor=none;points=[[0,0.5],[1,0.5]];portConstraint=eastwest;labelBackgroundColor=none;" vertex="1" parent="wHghQkYVK7Z7FGzc5HRr-27">
          <mxGeometry y="119" width="160" height="61" as="geometry" />
        </mxCell>
        <mxCell id="wHghQkYVK7Z7FGzc5HRr-36" value="CPU Core 3" style="shape=partialRectangle;html=1;whiteSpace=wrap;connectable=0;overflow=hidden;fillColor=none;top=0;left=0;bottom=0;right=0;pointerEvents=1;fontStyle=1;fontSize=14;labelBackgroundColor=none;" vertex="1" parent="wHghQkYVK7Z7FGzc5HRr-35">
          <mxGeometry width="89" height="61" as="geometry">
            <mxRectangle width="89" height="61" as="alternateBounds" />
          </mxGeometry>
        </mxCell>
        <mxCell id="wHghQkYVK7Z7FGzc5HRr-37" value="" style="shape=partialRectangle;html=1;whiteSpace=wrap;connectable=0;overflow=hidden;fillColor=none;top=0;left=0;bottom=0;right=0;pointerEvents=1;labelBackgroundColor=none;" visible="0" vertex="1" parent="wHghQkYVK7Z7FGzc5HRr-35">
          <mxGeometry x="89" width="71" height="61" as="geometry">
            <mxRectangle width="71" height="61" as="alternateBounds" />
          </mxGeometry>
        </mxCell>
        <mxCell id="wHghQkYVK7Z7FGzc5HRr-38" value="" style="shape=tableRow;horizontal=0;startSize=0;swimlaneHead=0;swimlaneBody=0;top=0;left=0;bottom=0;right=0;collapsible=0;dropTarget=0;fillColor=none;points=[[0,0.5],[1,0.5]];portConstraint=eastwest;labelBackgroundColor=none;" vertex="1" parent="wHghQkYVK7Z7FGzc5HRr-27">
          <mxGeometry y="180" width="160" height="59" as="geometry" />
        </mxCell>
        <mxCell id="wHghQkYVK7Z7FGzc5HRr-39" value="CPU Core 4" style="shape=partialRectangle;html=1;whiteSpace=wrap;connectable=0;overflow=hidden;fillColor=none;top=0;left=0;bottom=0;right=0;pointerEvents=1;fontStyle=1;fontSize=14;labelBackgroundColor=none;" vertex="1" parent="wHghQkYVK7Z7FGzc5HRr-38">
          <mxGeometry width="89" height="59" as="geometry">
            <mxRectangle width="89" height="59" as="alternateBounds" />
          </mxGeometry>
        </mxCell>
        <mxCell id="wHghQkYVK7Z7FGzc5HRr-40" value="" style="shape=partialRectangle;html=1;whiteSpace=wrap;connectable=0;overflow=hidden;fillColor=none;top=0;left=0;bottom=0;right=0;pointerEvents=1;labelBackgroundColor=none;" visible="0" vertex="1" parent="wHghQkYVK7Z7FGzc5HRr-38">
          <mxGeometry x="89" width="71" height="59" as="geometry">
            <mxRectangle width="71" height="59" as="alternateBounds" />
          </mxGeometry>
        </mxCell>
        <mxCell id="wHghQkYVK7Z7FGzc5HRr-41" value="" style="endArrow=classic;html=1;rounded=0;fontSize=13;labelBackgroundColor=none;fontColor=default;" edge="1" parent="1">
          <mxGeometry width="50" height="50" relative="1" as="geometry">
            <mxPoint x="510" y="599.5" as="sourcePoint" />
            <mxPoint x="580" y="600" as="targetPoint" />
          </mxGeometry>
        </mxCell>
        <mxCell id="wHghQkYVK7Z7FGzc5HRr-42" value="" style="endArrow=classic;html=1;rounded=0;fontSize=13;labelBackgroundColor=none;fontColor=default;" edge="1" parent="1">
          <mxGeometry width="50" height="50" relative="1" as="geometry">
            <mxPoint x="510" y="789.5" as="sourcePoint" />
            <mxPoint x="580" y="790" as="targetPoint" />
          </mxGeometry>
        </mxCell>
        <mxCell id="wHghQkYVK7Z7FGzc5HRr-43" value="" style="endArrow=classic;html=1;rounded=0;fontSize=13;labelBackgroundColor=none;fontColor=default;" edge="1" parent="1">
          <mxGeometry width="50" height="50" relative="1" as="geometry">
            <mxPoint x="510" y="719.5" as="sourcePoint" />
            <mxPoint x="580" y="720" as="targetPoint" />
          </mxGeometry>
        </mxCell>
        <mxCell id="wHghQkYVK7Z7FGzc5HRr-44" value="" style="endArrow=classic;html=1;rounded=0;fontSize=13;labelBackgroundColor=none;fontColor=default;" edge="1" parent="1">
          <mxGeometry width="50" height="50" relative="1" as="geometry">
            <mxPoint x="510" y="659.5" as="sourcePoint" />
            <mxPoint x="580" y="660" as="targetPoint" />
          </mxGeometry>
        </mxCell>
        <mxCell id="wHghQkYVK7Z7FGzc5HRr-45" value="" style="shape=table;startSize=0;container=1;collapsible=0;childLayout=tableLayout;flipV=1;flipH=0;dashed=1;dashPattern=1 4;strokeWidth=1;opacity=90;labelBackgroundColor=none;fontStyle=1" vertex="1" parent="1">
          <mxGeometry x="260" y="550" width="240" height="20" as="geometry" />
        </mxCell>
        <mxCell id="wHghQkYVK7Z7FGzc5HRr-46" value="" style="shape=tableRow;horizontal=0;startSize=0;swimlaneHead=0;swimlaneBody=0;top=0;left=0;bottom=0;right=0;collapsible=0;dropTarget=0;fillColor=none;points=[[0,0.5],[1,0.5]];portConstraint=eastwest;labelBackgroundColor=none;" vertex="1" parent="wHghQkYVK7Z7FGzc5HRr-45">
          <mxGeometry width="240" height="20" as="geometry" />
        </mxCell>
        <mxCell id="wHghQkYVK7Z7FGzc5HRr-47" value="t4" style="shape=partialRectangle;html=1;whiteSpace=wrap;connectable=0;overflow=hidden;fillColor=none;top=0;left=0;bottom=0;right=0;pointerEvents=1;labelBackgroundColor=none;fontStyle=1" vertex="1" parent="wHghQkYVK7Z7FGzc5HRr-46">
          <mxGeometry width="60" height="20" as="geometry">
            <mxRectangle width="60" height="20" as="alternateBounds" />
          </mxGeometry>
        </mxCell>
        <mxCell id="wHghQkYVK7Z7FGzc5HRr-48" value="t3" style="shape=partialRectangle;html=1;whiteSpace=wrap;connectable=0;overflow=hidden;fillColor=none;top=0;left=0;bottom=0;right=0;pointerEvents=1;labelBackgroundColor=none;fontStyle=1" vertex="1" parent="wHghQkYVK7Z7FGzc5HRr-46">
          <mxGeometry x="60" width="60" height="20" as="geometry">
            <mxRectangle width="60" height="20" as="alternateBounds" />
          </mxGeometry>
        </mxCell>
        <mxCell id="wHghQkYVK7Z7FGzc5HRr-49" value="t2" style="shape=partialRectangle;html=1;whiteSpace=wrap;connectable=0;overflow=hidden;fillColor=none;top=0;left=0;bottom=0;right=0;pointerEvents=1;labelBackgroundColor=none;fontStyle=1" vertex="1" parent="wHghQkYVK7Z7FGzc5HRr-46">
          <mxGeometry x="120" width="60" height="20" as="geometry">
            <mxRectangle width="60" height="20" as="alternateBounds" />
          </mxGeometry>
        </mxCell>
        <mxCell id="wHghQkYVK7Z7FGzc5HRr-50" value="t1" style="shape=partialRectangle;html=1;whiteSpace=wrap;connectable=0;overflow=hidden;fillColor=none;top=0;left=0;bottom=0;right=0;pointerEvents=1;labelBackgroundColor=none;fontStyle=1" vertex="1" parent="wHghQkYVK7Z7FGzc5HRr-46">
          <mxGeometry x="180" width="60" height="20" as="geometry">
            <mxRectangle width="60" height="20" as="alternateBounds" />
          </mxGeometry>
        </mxCell>
      </root>
    </mxGraphModel>
  </diagram>
</mxfile>
